<?xml version="1.0" encoding="UTF-8" standalone="no"?><diagram id="SNbYQcsz_Utg5FWgZMJS" name="Page-1"><mxGraphModel arrows="1" connect="1" dx="332" dy="241" fold="1" grid="1" gridSize="10" guides="1" math="0" page="1" pageHeight="1100" pageScale="1" pageWidth="850" shadow="0" tooltips="1"><root><mxCell id="0"/><mxCell id="1" parent="0"/><mxCell id="2" parent="1" style="swimlane;fontStyle=0;align=center;verticalAlign=top;childLayout=stackLayout;horizontal=1;startSize=30;horizontalStack=0;resizeParent=1;resizeParentMax=0;resizeLast=0;collapsible=0;marginBottom=0;html=1;" value="ChildWidget" vertex="1"><mxGeometry as="geometry" height="34" width="225" x="70" y="80"/></mxCell><mxCell id="3" parent="2" style="line;strokeWidth=1;fillColor=none;align=left;verticalAlign=middle;spacingTop=-1;spacingLeft=3;spacingRight=3;rotatable=0;labelPosition=right;points=[];portConstraint=eastwest;" vertex="1"><mxGeometry as="geometry" height="8" width="225" y="26"/></mxCell><mxCell id="4" parent="1" style="swimlane;fontStyle=0;align=center;verticalAlign=top;childLayout=stackLayout;horizontal=1;startSize=30;horizontalStack=0;resizeParent=1;resizeParentMax=0;resizeLast=0;collapsible=0;marginBottom=0;html=1;" value="FlexibleWidget" vertex="1"><mxGeometry as="geometry" height="164" width="225" x="300" y="80"/></mxCell><mxCell id="5" parent="4" style="text;html=1;strokeColor=none;fillColor=none;align=left;verticalAlign=middle;spacingLeft=4;spacingRight=4;overflow=hidden;rotatable=0;points=[[0,0.5],[1,0.5]];portConstraint=eastwest;" value="- flex : int" vertex="1"><mxGeometry as="geometry" height="26" width="225" y="26"/></mxCell><mxCell id="6" parent="4" style="line;strokeWidth=1;fillColor=none;align=left;verticalAlign=middle;spacingTop=-1;spacingLeft=3;spacingRight=3;rotatable=0;labelPosition=right;points=[];portConstraint=eastwest;" vertex="1"><mxGeometry as="geometry" height="8" width="225" y="52"/></mxCell><mxCell id="7" parent="4" style="text;html=1;strokeColor=none;fillColor=none;align=left;verticalAlign=middle;spacingLeft=4;spacingRight=4;overflow=hidden;rotatable=0;points=[[0,0.5],[1,0.5]];portConstraint=eastwest;" value="# FlexibleWidget(Widget, int)" vertex="1"><mxGeometry as="geometry" height="26" width="225" y="60"/></mxCell><mxCell id="8" parent="4" style="text;html=1;strokeColor=none;fillColor=none;align=left;verticalAlign=middle;spacingLeft=4;spacingRight=4;overflow=hidden;rotatable=0;points=[[0,0.5],[1,0.5]];portConstraint=eastwest;" value="+ getFlex(): int" vertex="1"><mxGeometry as="geometry" height="26" width="225" y="86"/></mxCell><mxCell id="9" parent="4" style="text;html=1;strokeColor=none;fillColor=none;align=left;verticalAlign=middle;spacingLeft=4;spacingRight=4;overflow=hidden;rotatable=0;points=[[0,0.5],[1,0.5]];portConstraint=eastwest;" value="+ setFlex(int): FlexibleWidget" vertex="1"><mxGeometry as="geometry" height="26" width="225" y="112"/></mxCell><mxCell id="10" parent="4" style="text;html=1;strokeColor=none;fillColor=none;align=left;verticalAlign=middle;spacingLeft=4;spacingRight=4;overflow=hidden;rotatable=0;points=[[0,0.5],[1,0.5]];portConstraint=eastwest;" value="+ layout(Dimension, Direction): void" vertex="1"><mxGeometry as="geometry" height="26" width="225" y="138"/></mxCell><mxCell id="11" parent="1" style="swimlane;fontStyle=0;align=center;verticalAlign=top;childLayout=stackLayout;horizontal=1;startSize=30;horizontalStack=0;resizeParent=1;resizeParentMax=0;resizeLast=0;collapsible=0;marginBottom=0;html=1;" value="MultiChildIterable" vertex="1"><mxGeometry as="geometry" height="190" width="225" x="530" y="80"/></mxCell><mxCell id="12" parent="11" style="text;html=1;strokeColor=none;fillColor=none;align=left;verticalAlign=middle;spacingLeft=4;spacingRight=4;overflow=hidden;rotatable=0;points=[[0,0.5],[1,0.5]];portConstraint=eastwest;" value="- children : Widget[]" vertex="1"><mxGeometry as="geometry" height="26" width="225" y="26"/></mxCell><mxCell id="13" parent="11" style="text;html=1;strokeColor=none;fillColor=none;align=left;verticalAlign=middle;spacingLeft=4;spacingRight=4;overflow=hidden;rotatable=0;points=[[0,0.5],[1,0.5]];portConstraint=eastwest;" value="- filter : Predicate&lt;Widget&gt;&amp;lt;Widget&amp;gt;" vertex="1"><mxGeometry as="geometry" height="26" width="225" y="52"/></mxCell><mxCell id="14" parent="11" style="line;strokeWidth=1;fillColor=none;align=left;verticalAlign=middle;spacingTop=-1;spacingLeft=3;spacingRight=3;rotatable=0;labelPosition=right;points=[];portConstraint=eastwest;" vertex="1"><mxGeometry as="geometry" height="8" width="225" y="78"/></mxCell><mxCell id="15" parent="11" style="text;html=1;strokeColor=none;fillColor=none;align=left;verticalAlign=middle;spacingLeft=4;spacingRight=4;overflow=hidden;rotatable=0;points=[[0,0.5],[1,0.5]];portConstraint=eastwest;" value="+ MultiChildIterable(Widget[])" vertex="1"><mxGeometry as="geometry" height="26" width="225" y="86"/></mxCell><mxCell id="16" parent="11" style="text;html=1;strokeColor=none;fillColor=none;align=left;verticalAlign=middle;spacingLeft=4;spacingRight=4;overflow=hidden;rotatable=0;points=[[0,0.5],[1,0.5]];portConstraint=eastwest;" value="+ filter(Predicate&lt;Widget&gt;): MultiChildIterable" vertex="1"><mxGeometry as="geometry" height="26" width="225" y="112"/></mxCell><mxCell id="17" parent="11" style="text;html=1;strokeColor=none;fillColor=none;align=left;verticalAlign=middle;spacingLeft=4;spacingRight=4;overflow=hidden;rotatable=0;points=[[0,0.5],[1,0.5]];portConstraint=eastwest;" value="+ reduce(T, BiFunction&lt;T,Widget,T&gt;): T" vertex="1"><mxGeometry as="geometry" height="26" width="225" y="138"/></mxCell><mxCell id="18" parent="11" style="text;html=1;strokeColor=none;fillColor=none;align=left;verticalAlign=middle;spacingLeft=4;spacingRight=4;overflow=hidden;rotatable=0;points=[[0,0.5],[1,0.5]];portConstraint=eastwest;" value="+ iterator(): Iterator&lt;Widget&gt;&amp;lt;Widget&amp;gt;" vertex="1"><mxGeometry as="geometry" height="26" width="225" y="164"/></mxCell><mxCell id="19" parent="1" style="swimlane;fontStyle=0;align=center;verticalAlign=top;childLayout=stackLayout;horizontal=1;startSize=30;horizontalStack=0;resizeParent=1;resizeParentMax=0;resizeLast=0;collapsible=0;marginBottom=0;html=1;" value="MultiChildWidget" vertex="1"><mxGeometry as="geometry" height="320" width="225" x="70" y="480"/></mxCell><mxCell id="20" parent="19" style="text;html=1;strokeColor=none;fillColor=none;align=left;verticalAlign=middle;spacingLeft=4;spacingRight=4;overflow=hidden;rotatable=0;points=[[0,0.5],[1,0.5]];portConstraint=eastwest;" value="# crossAxisAlignment : Alignment" vertex="1"><mxGeometry as="geometry" height="26" width="225" y="26"/></mxCell><mxCell id="21" parent="19" style="text;html=1;strokeColor=none;fillColor=none;align=left;verticalAlign=middle;spacingLeft=4;spacingRight=4;overflow=hidden;rotatable=0;points=[[0,0.5],[1,0.5]];portConstraint=eastwest;" value="+ children : Widget[]" vertex="1"><mxGeometry as="geometry" height="26" width="225" y="52"/></mxCell><mxCell id="22" parent="19" style="line;strokeWidth=1;fillColor=none;align=left;verticalAlign=middle;spacingTop=-1;spacingLeft=3;spacingRight=3;rotatable=0;labelPosition=right;points=[];portConstraint=eastwest;" vertex="1"><mxGeometry as="geometry" height="8" width="225" y="78"/></mxCell><mxCell id="23" parent="19" style="text;html=1;strokeColor=none;fillColor=none;align=left;verticalAlign=middle;spacingLeft=4;spacingRight=4;overflow=hidden;rotatable=0;points=[[0,0.5],[1,0.5]];portConstraint=eastwest;" value="+ MultiChildWidget(Widget...)" vertex="1"><mxGeometry as="geometry" height="26" width="225" y="86"/></mxCell><mxCell id="24" parent="19" style="text;html=1;strokeColor=none;fillColor=none;align=left;verticalAlign=middle;spacingLeft=4;spacingRight=4;overflow=hidden;rotatable=0;points=[[0,0.5],[1,0.5]];portConstraint=eastwest;" value="+ paint(Graphics): void" vertex="1"><mxGeometry as="geometry" height="26" width="225" y="112"/></mxCell><mxCell id="25" parent="19" style="text;html=1;strokeColor=none;fillColor=none;align=left;verticalAlign=middle;spacingLeft=4;spacingRight=4;overflow=hidden;rotatable=0;points=[[0,0.5],[1,0.5]];portConstraint=eastwest;" value="# positionChildren(): void" vertex="1"><mxGeometry as="geometry" height="26" width="225" y="138"/></mxCell><mxCell id="26" parent="19" style="text;html=1;strokeColor=none;fillColor=none;align=left;verticalAlign=middle;spacingLeft=4;spacingRight=4;overflow=hidden;rotatable=0;points=[[0,0.5],[1,0.5]];portConstraint=eastwest;" value="# layoutFlexibleWidgets(Dimension): void" vertex="1"><mxGeometry as="geometry" height="26" width="225" y="164"/></mxCell><mxCell id="27" parent="19" style="text;html=1;strokeColor=none;fillColor=none;align=left;verticalAlign=middle;spacingLeft=4;spacingRight=4;overflow=hidden;rotatable=0;points=[[0,0.5],[1,0.5]];portConstraint=eastwest;" value="# layoutInflexibleWidgets(Dimension): void" vertex="1"><mxGeometry as="geometry" height="26" width="225" y="190"/></mxCell><mxCell id="28" parent="19" style="text;html=1;strokeColor=none;fillColor=none;align=left;verticalAlign=middle;spacingLeft=4;spacingRight=4;overflow=hidden;rotatable=0;points=[[0,0.5],[1,0.5]];portConstraint=eastwest;" value="# flexibleChildren(): MultiChildIterable" vertex="1"><mxGeometry as="geometry" height="26" width="225" y="216"/></mxCell><mxCell id="29" parent="19" style="text;html=1;strokeColor=none;fillColor=none;align=left;verticalAlign=middle;spacingLeft=4;spacingRight=4;overflow=hidden;rotatable=0;points=[[0,0.5],[1,0.5]];portConstraint=eastwest;" value="# inflexibleChildren(): MultiChildIterable" vertex="1"><mxGeometry as="geometry" height="26" width="225" y="242"/></mxCell><mxCell id="30" parent="19" style="text;html=1;strokeColor=none;fillColor=none;align=left;verticalAlign=middle;spacingLeft=4;spacingRight=4;overflow=hidden;rotatable=0;points=[[0,0.5],[1,0.5]];portConstraint=eastwest;" value="+ hitTest(int, Dimension, int): Interactable" vertex="1"><mxGeometry as="geometry" height="26" width="225" y="268"/></mxCell><mxCell id="31" parent="19" style="text;html=1;strokeColor=none;fillColor=none;align=left;verticalAlign=middle;spacingLeft=4;spacingRight=4;overflow=hidden;rotatable=0;points=[[0,0.5],[1,0.5]];portConstraint=eastwest;" value="+ setCrossAxisAlignment(Alignment): MultiChildWidget" vertex="1"><mxGeometry as="geometry" height="26" width="225" y="294"/></mxCell><mxCell id="32" parent="1" style="swimlane;fontStyle=0;align=center;verticalAlign=top;childLayout=stackLayout;horizontal=1;startSize=30;horizontalStack=0;resizeParent=1;resizeParentMax=0;resizeLast=0;collapsible=0;marginBottom=0;html=1;" value="SingleChildWidget" vertex="1"><mxGeometry as="geometry" height="242" width="225" x="300" y="480"/></mxCell><mxCell id="33" parent="32" style="text;html=1;strokeColor=none;fillColor=none;align=left;verticalAlign=middle;spacingLeft=4;spacingRight=4;overflow=hidden;rotatable=0;points=[[0,0.5],[1,0.5]];portConstraint=eastwest;" value="# horizontalAlignment : Alignment" vertex="1"><mxGeometry as="geometry" height="26" width="225" y="26"/></mxCell><mxCell id="34" parent="32" style="text;html=1;strokeColor=none;fillColor=none;align=left;verticalAlign=middle;spacingLeft=4;spacingRight=4;overflow=hidden;rotatable=0;points=[[0,0.5],[1,0.5]];portConstraint=eastwest;" value="# verticalAlignment : Alignment" vertex="1"><mxGeometry as="geometry" height="26" width="225" y="52"/></mxCell><mxCell id="35" parent="32" style="text;html=1;strokeColor=none;fillColor=none;align=left;verticalAlign=middle;spacingLeft=4;spacingRight=4;overflow=hidden;rotatable=0;points=[[0,0.5],[1,0.5]];portConstraint=eastwest;" value="# child : Widget" vertex="1"><mxGeometry as="geometry" height="26" width="225" y="78"/></mxCell><mxCell id="36" parent="32" style="line;strokeWidth=1;fillColor=none;align=left;verticalAlign=middle;spacingTop=-1;spacingLeft=3;spacingRight=3;rotatable=0;labelPosition=right;points=[];portConstraint=eastwest;" vertex="1"><mxGeometry as="geometry" height="8" width="225" y="104"/></mxCell><mxCell id="37" parent="32" style="text;html=1;strokeColor=none;fillColor=none;align=left;verticalAlign=middle;spacingLeft=4;spacingRight=4;overflow=hidden;rotatable=0;points=[[0,0.5],[1,0.5]];portConstraint=eastwest;" value="+ SingleChildWidget(Widget)" vertex="1"><mxGeometry as="geometry" height="26" width="225" y="112"/></mxCell><mxCell id="38" parent="32" style="text;html=1;strokeColor=none;fillColor=none;align=left;verticalAlign=middle;spacingLeft=4;spacingRight=4;overflow=hidden;rotatable=0;points=[[0,0.5],[1,0.5]];portConstraint=eastwest;" value="+ paint(Graphics): void" vertex="1"><mxGeometry as="geometry" height="26" width="225" y="138"/></mxCell><mxCell id="39" parent="32" style="text;html=1;strokeColor=none;fillColor=none;align=left;verticalAlign=middle;spacingLeft=4;spacingRight=4;overflow=hidden;rotatable=0;points=[[0,0.5],[1,0.5]];portConstraint=eastwest;" value="+ positionChild(): void" vertex="1"><mxGeometry as="geometry" height="26" width="225" y="164"/></mxCell><mxCell id="40" parent="32" style="text;html=1;strokeColor=none;fillColor=none;align=left;verticalAlign=middle;spacingLeft=4;spacingRight=4;overflow=hidden;rotatable=0;points=[[0,0.5],[1,0.5]];portConstraint=eastwest;" value="+ layout(Dimension): void" vertex="1"><mxGeometry as="geometry" height="26" width="225" y="190"/></mxCell><mxCell id="41" parent="32" style="text;html=1;strokeColor=none;fillColor=none;align=left;verticalAlign=middle;spacingLeft=4;spacingRight=4;overflow=hidden;rotatable=0;points=[[0,0.5],[1,0.5]];portConstraint=eastwest;" value="+ hitTest(int, Dimension, int): Interactable" vertex="1"><mxGeometry as="geometry" height="26" width="225" y="216"/></mxCell><mxCell id="42" parent="1" style="swimlane;fontStyle=0;align=center;verticalAlign=top;childLayout=stackLayout;horizontal=1;startSize=30;horizontalStack=0;resizeParent=1;resizeParentMax=0;resizeLast=0;collapsible=0;marginBottom=0;html=1;" value="StatefulWidget" vertex="1"><mxGeometry as="geometry" height="86" width="225" x="530" y="480"/></mxCell><mxCell id="43" parent="42" style="line;strokeWidth=1;fillColor=none;align=left;verticalAlign=middle;spacingTop=-1;spacingLeft=3;spacingRight=3;rotatable=0;labelPosition=right;points=[];portConstraint=eastwest;" vertex="1"><mxGeometry as="geometry" height="8" width="225" y="26"/></mxCell><mxCell id="44" parent="42" style="text;html=1;strokeColor=none;fillColor=none;align=left;verticalAlign=middle;spacingLeft=4;spacingRight=4;overflow=hidden;rotatable=0;points=[[0,0.5],[1,0.5]];portConstraint=eastwest;" value="+ StatefulWidget(Context)" vertex="1"><mxGeometry as="geometry" height="26" width="225" y="34"/></mxCell><mxCell id="45" parent="42" style="text;html=1;strokeColor=none;fillColor=none;align=left;verticalAlign=middle;spacingLeft=4;spacingRight=4;overflow=hidden;rotatable=0;points=[[0,0.5],[1,0.5]];portConstraint=eastwest;" value="+ setState(Runnable): void" vertex="1"><mxGeometry as="geometry" height="26" width="225" y="60"/></mxCell><mxCell id="46" parent="1" style="swimlane;fontStyle=0;align=center;verticalAlign=top;childLayout=stackLayout;horizontal=1;startSize=30;horizontalStack=0;resizeParent=1;resizeParentMax=0;resizeLast=0;collapsible=0;marginBottom=0;html=1;" value="Widget" vertex="1"><mxGeometry as="geometry" height="242" width="225" x="70" y="880"/></mxCell><mxCell id="47" parent="46" style="text;html=1;strokeColor=none;fillColor=none;align=left;verticalAlign=middle;spacingLeft=4;spacingRight=4;overflow=hidden;rotatable=0;points=[[0,0.5],[1,0.5]];portConstraint=eastwest;" value="# position : Dimension" vertex="1"><mxGeometry as="geometry" height="26" width="225" y="26"/></mxCell><mxCell id="48" parent="46" style="text;html=1;strokeColor=none;fillColor=none;align=left;verticalAlign=middle;spacingLeft=4;spacingRight=4;overflow=hidden;rotatable=0;points=[[0,0.5],[1,0.5]];portConstraint=eastwest;" value="# position : Dimension" vertex="1"><mxGeometry as="geometry" height="26" width="225" y="52"/></mxCell><mxCell id="49" parent="46" style="line;strokeWidth=1;fillColor=none;align=left;verticalAlign=middle;spacingTop=-1;spacingLeft=3;spacingRight=3;rotatable=0;labelPosition=right;points=[];portConstraint=eastwest;" vertex="1"><mxGeometry as="geometry" height="8" width="225" y="78"/></mxCell><mxCell id="50" parent="46" style="text;html=1;strokeColor=none;fillColor=none;align=left;verticalAlign=middle;spacingLeft=4;spacingRight=4;overflow=hidden;rotatable=0;points=[[0,0.5],[1,0.5]];portConstraint=eastwest;" value="+ setPosition(Dimension): void" vertex="1"><mxGeometry as="geometry" height="26" width="225" y="86"/></mxCell><mxCell id="51" parent="46" style="text;html=1;strokeColor=none;fillColor=none;align=left;verticalAlign=middle;spacingLeft=4;spacingRight=4;overflow=hidden;rotatable=0;points=[[0,0.5],[1,0.5]];portConstraint=eastwest;" value="+ getSize(): Dimension" vertex="1"><mxGeometry as="geometry" height="26" width="225" y="112"/></mxCell><mxCell id="52" parent="46" style="text;html=1;strokeColor=none;fillColor=none;align=left;verticalAlign=middle;spacingLeft=4;spacingRight=4;overflow=hidden;rotatable=0;points=[[0,0.5],[1,0.5]];portConstraint=eastwest;" value="+ setSize(Dimension): void" vertex="1"><mxGeometry as="geometry" height="26" width="225" y="138"/></mxCell><mxCell id="53" parent="46" style="text;html=1;strokeColor=none;fillColor=none;align=left;verticalAlign=middle;spacingLeft=4;spacingRight=4;overflow=hidden;rotatable=0;points=[[0,0.5],[1,0.5]];portConstraint=eastwest;" value="+ hitTest(int, Dimension, int): Interactable" vertex="1"><mxGeometry as="geometry" height="26" width="225" y="164"/></mxCell><mxCell id="54" parent="46" style="text;html=1;strokeColor=none;fillColor=none;align=left;verticalAlign=middle;spacingLeft=4;spacingRight=4;overflow=hidden;rotatable=0;points=[[0,0.5],[1,0.5]];portConstraint=eastwest;" value="+ layout(Dimension): void" vertex="1"><mxGeometry as="geometry" height="26" width="225" y="190"/></mxCell><mxCell id="55" parent="46" style="text;html=1;strokeColor=none;fillColor=none;align=left;verticalAlign=middle;spacingLeft=4;spacingRight=4;overflow=hidden;rotatable=0;points=[[0,0.5],[1,0.5]];portConstraint=eastwest;" value="+ paint(Graphics): void" vertex="1"><mxGeometry as="geometry" height="26" width="225" y="216"/></mxCell><mxCell edge="1" id="56" parent="1" source="2" style="endArrow=block;endSize=16;endFill=0;html=1" target="46" value="Extends"><mxGeometry as="geometry" relative="1" width="160"/></mxCell><mxCell edge="1" id="57" parent="1" source="4" style="endArrow=block;endSize=16;endFill=0;html=1" target="2" value="Extends"><mxGeometry as="geometry" relative="1" width="160"/></mxCell><mxCell edge="1" id="58" parent="1" source="19" style="endArrow=block;endSize=16;endFill=0;html=1" target="2" value="Extends"><mxGeometry as="geometry" relative="1" width="160"/></mxCell><mxCell edge="1" id="59" parent="1" source="32" style="endArrow=block;endSize=16;endFill=0;html=1" target="2" value="Extends"><mxGeometry as="geometry" relative="1" width="160"/></mxCell></root></mxGraphModel></diagram>